PathFileType	4	(X/Y/Z)	./resultDataOpenSim/trcMotMarkerGrf/sub06/qtm-01-04.trc
DataRate	CameraRate	NumFrames	NumMarkers	Units	OrigDataRate	OrigDataStartFrame	OrigNumFrames
250.000000	250.000000	12	24	m	250.000000	258	515
Frame#	Time	L.Toe.Tip			R.Toe.Tip			L.Ankle.Lat			R.Ankle.Lat			L.Ankle.Med			R.Ankle.Med			L.Heel			R.Heel			L.Knee.Lat			R.Knee.Lat			L.Knee.Med			R.Knee.Med			L.Thigh.Upper			R.Thigh.Upper			L.ASIS			R.ASIS			V.Sacral			L.Acromium			R.Acromium			C7			L.Elbow			R.Elbow			L.Wrist.Lat			R.Wrist.Lat
		X1	Y1	Z1	X2	Y2	Z2	X3	Y3	Z3	X4	Y4	Z4	X5	Y5	Z5	X6	Y6	Z6	X7	Y7	Z7	X8	Y8	Z8	X9	Y9	Z9	X10	Y10	Z10	X11	Y11	Z11	X12	Y12	Z12	X13	Y13	Z13	X14	Y14	Z14	X15	Y15	Z15	X16	Y16	Z16	X17	Y17	Z17	X18	Y18	Z18	X19	Y19	Z19	X20	Y20	Z20	X21	Y21	Z21	X22	Y22	Z22	X23	Y23	Z23	X24	Y24	Z24

258	1.028	0.097759752	0.034126893	-0.017966904	0.54571018	0.085613031	0.16291725	-0.022306282	0.077735877	-0.041200909	0.40936576	0.081235146	0.17363986	-0.019819769	0.09286677	0.046248336	0.43261257	0.1093405	0.089102046	-0.099213232	0.058977457	0.0053944743	0.3706456	0.04739141	0.10650959	0.11425939	0.42456529	-0.063680068	0.36565492	0.47124017	0.18045546	0.093802237	0.43105827	0.055848768	0.35413338	0.45251817	0.052802964	0.18744075	0.80616856	-0.13825733	0.1870545	0.80290199	0.2087131	0.26562653	0.85024074	-0.095773738	0.27220672	0.85699783	0.15139992	0.086225372	0.93023748	0.035084527	0.23474742	1.3400595	-0.14453958	0.20310237	1.3242894	0.21599496	0.14488361	1.3717983	0.028207103	0.25067854	1.022066	-0.23179862	0.059690083	1.0405632	0.26048329	0.47349483	0.91515821	-0.18835304	0.13491032	0.81785169	0.31828264
259	1.032	0.097757891	0.034098891	-0.017969987	0.56296646	0.088322115	0.16225406	-0.021953512	0.078378268	-0.041303554	0.42668975	0.081514495	0.1740355	-0.019380411	0.093572039	0.046128695	0.44902331	0.11005272	0.089475883	-0.098968174	0.06006422	0.0052233615	0.38830873	0.04669647	0.10733128	0.11636199	0.42427904	-0.063561845	0.37227302	0.46974714	0.17998641	0.096526292	0.4308865	0.055782121	0.36035477	0.45050168	0.052142428	0.19275335	0.80510022	-0.13803629	0.1944517	0.80173241	0.20897661	0.27150631	0.84912862	-0.095867394	0.27921852	0.85586769	0.15139675	0.092417722	0.92893696	0.035985176	0.24090289	1.3388734	-0.14432497	0.2092595	1.3229856	0.21629386	0.15112333	1.3706933	0.028503562	0.25900683	1.0209715	-0.23165376	0.065408181	1.0395815	0.26039146	0.48244901	0.91581976	-0.18719554	0.13891854	0.8166688	0.31903596
260	1.036	0.097761474	0.034069513	-0.017974107	0.57976619	0.091347401	0.16167579	-0.021550654	0.079028586	-0.041451705	0.44367672	0.081954553	0.17438212	-0.01894976	0.09429702	0.045979937	0.46502665	0.1109678	0.089772198	-0.098726125	0.061195869	0.0050308615	0.40559312	0.046217684	0.10806567	0.11886488	0.42394685	-0.063655339	0.37887332	0.46820022	0.17961549	0.099570797	0.43064008	0.055659262	0.36662544	0.44840322	0.051470906	0.19807091	0.80394704	-0.13780732	0.20178338	0.8004809	0.20918253	0.27743368	0.84799538	-0.095894051	0.28633167	0.85474091	0.1514156	0.098833697	0.92760189	0.036657321	0.24707676	1.3376575	-0.14409682	0.21545231	1.3216419	0.21660482	0.15734522	1.3695527	0.028840802	0.26734285	1.0198107	-0.23137101	0.071156543	1.0385681	0.26032522	0.4913578	0.91641109	-0.18601177	0.14294441	0.81543212	0.31976365
261	1.04	0.097772389	0.034041449	-0.017985736	0.59604885	0.094733383	0.16115294	-0.021107222	0.079687641	-0.041633579	0.46024298	0.082572376	0.17464282	-0.018496052	0.095008554	0.045787897	0.48053048	0.11204156	0.08992912	-0.098478254	0.062389596	0.0048182582	0.42246622	0.045943523	0.10863194	0.12165684	0.42357249	-0.063845077	0.38545107	0.46662222	0.17933593	0.10276444	0.43035265	0.055596951	0.37296918	0.44624834	0.050791099	0.2033918	0.80268419	-0.13759338	0.20916263	0.79919032	0.20938931	0.28341421	0.84684638	-0.095854644	0.29352688	0.8536179	0.15144821	0.10559054	0.92622065	0.037133116	0.25326941	1.3364161	-0.1438555	0.22168988	1.3202643	0.2169371	0.16355428	1.3683786	0.029212246	0.27566227	1.0186078	-0.23098814	0.076942558	1.0375183	0.26027379	0.5002258	0.91693874	-0.18479354	0.14701653	0.81415284	0.32047169
262	1.044	0.097785095	0.034014591	-0.018004703	0.61176926	0.098489957	0.16064397	-0.020641453	0.080355402	-0.041835708	0.47629594	0.083381985	0.17477449	-0.017984119	0.095711654	0.045563463	0.49548399	0.11323678	0.089921534	-0.098206391	0.063642467	0.004568467	0.43890968	0.04581992	0.10901526	0.12466214	0.42314511	-0.064046374	0.39203309	0.46505286	0.17913445	0.10604096	0.43002572	0.055616219	0.37937957	0.44406508	0.050112904	0.2087198	0.80135539	-0.13739935	0.21661986	0.7978701	0.2096088	0.28943935	0.84568605	-0.095769811	0.30074336	0.85247906	0.15146748	0.11263298	0.92478703	0.037671564	0.25947889	1.3351549	-0.14360044	0.22797149	1.3188626	0.2172905	0.16977386	1.3671739	0.029594598	0.28392664	1.0173753	-0.23058142	0.082766099	1.0364331	0.26024436	0.50904965	0.91739936	-0.18354931	0.15117617	0.81284928	0.32117368
263	1.048	0.097794225	0.033987266	-0.018029866	0.62690917	0.10256056	0.16011395	-0.02016168	0.081027762	-0.042032574	0.49178352	0.084350896	0.17473914	-0.017367163	0.096425918	0.045325324	0.50988519	0.11452508	0.089760912	-0.097881796	0.064926727	0.0042801994	0.45490907	0.045789819	0.10922421	0.12786037	0.42265583	-0.064222992	0.39866414	0.46353002	0.17899415	0.10941892	0.42962508	0.05564965	0.38585374	0.44188305	0.049445008	0.21406406	0.80006959	-0.13720534	0.22413079	0.79651006	0.20982442	0.29549949	0.84451435	-0.095678061	0.30792045	0.85129899	0.15144433	0.11968444	0.92335071	0.038515114	0.26570536	1.3338786	-0.14333006	0.2342823	1.3174452	0.21765426	0.17603714	1.3659442	0.029955109	0.29212289	1.0161199	-0.23017456	0.088630728	1.0353139	0.26024358	0.51781813	0.91778564	-0.18229378	0.15545581	0.81153826	0.3218853
264	1.052	0.097799805	0.033958812	-0.01806115	0.64146755	0.10682712	0.15953306	-0.019644071	0.081690342	-0.042200203	0.50669192	0.085415673	0.17451677	-0.01661512	0.097153701	0.045072144	0.52376917	0.11587601	0.089468947	-0.097479622	0.066212388	0.0039905793	0.47045173	0.045820587	0.10924928	0.13125958	0.42210714	-0.064363369	0.40537459	0.46207313	0.17889075	0.11291853	0.42911908	0.055620106	0.3924045	0.43973374	0.048795316	0.21943293	0.79890192	-0.13698943	0.23168326	0.79511227	0.21003159	0.30158819	0.84332691	-0.095615583	0.31506155	0.85008274	0.15137657	0.12646348	0.92198263	0.039682217	0.27195184	1.3325892	-0.14304232	0.24060552	1.3160163	0.21802056	0.18236196	1.3646978	0.03026857	0.30027379	1.0148508	-0.22971737	0.094544661	1.0341612	0.26027143	0.52650916	0.91809102	-0.18104354	0.1598745	0.81023116	0.32261775
265	1.056	0.097807391	0.033931316	-0.018099322	0.65543555	0.11114694	0.1588892	-0.01903256	0.082329175	-0.042353526	0.52101845	0.086512991	0.17411222	-0.015763755	0.097886435	0.044794179	0.53718016	0.11725316	0.089054451	-0.097000959	0.067511042	0.0037256437	0.4855224	0.04590284	0.10906753	0.13486433	0.4215081	-0.064464995	0.41216968	0.46068759	0.17879628	0.11654839	0.42850988	0.055516477	0.39905218	0.43764957	0.048169467	0.2248315	0.79783137	-0.13674432	0.23929117	0.79369238	0.21024263	0.3076987	0.84211626	-0.09560005	0.32221733	0.84885919	0.15128274	0.13300201	0.92067467	0.040997018	0.27821901	1.3312888	-0.14273704	0.24693406	1.3145769	0.21839399	0.18873107	1.3634442	0.030547293	0.30840706	1.0135799	-0.22915321	0.10051584	1.032977	0.26032133	0.53509905	0.91831035	-0.17981151	0.1644357	0.80893425	0.32337281
266	1.06	0.097822973	0.033908811	-0.018145484	0.66878486	0.11538054	0.15820446	-0.018292503	0.08296306	-0.042545493	0.53474575	0.087597456	0.17355353	-0.014896663	0.09863121	0.044502712	0.55014807	0.11862169	0.088508794	-0.096476829	0.068884994	0.0034565272	0.50009564	0.04603985	0.10865866	0.13865903	0.42086886	-0.064535071	0.4190479	0.4593789	0.17869205	0.12034555	0.42782679	0.055396328	0.40580692	0.43566614	0.047572986	0.23026489	0.79679135	-0.13647096	0.24696309	0.79226009	0.21046466	0.31382056	0.84087872	-0.095643081	0.32941883	0.84764432	0.15117405	0.13959364	0.91935435	0.042253751	0.28450378	1.3299813	-0.14241719	0.25327082	1.313129	0.21878709	0.19509682	1.3621964	0.030852677	0.31652453	1.0123146	-0.22848197	0.10654432	1.0317662	0.26038371	0.54358364	0.91844281	-0.17859998	0.16911973	0.80764793	0.32413967
267	1.064	0.097848715	0.033894396	-0.018198096	0.68149058	0.11939349	0.15751813	-0.01747941	0.083655617	-0.042803048	0.5478302	0.088649904	0.17288398	-0.014064348	0.099413881	0.044224161	0.56268182	0.11995654	0.087822774	-0.095936918	0.070391603	0.0031428504	0.51413902	0.046234891	0.10801468	0.14261304	0.4202003	-0.064589938	0.42601621	0.45815611	0.1785733	0.12436279	0.42710321	0.055316302	0.41266391	0.43382384	0.047013678	0.23573992	0.79574014	-0.13617328	0.25468571	0.79081475	0.21069208	0.3199403	0.83962877	-0.09576699	0.3366588	0.84643564	0.15104852	0.14642678	0.91801023	0.04332539	0.29080614	1.3286732	-0.14208505	0.25962407	1.3116776	0.21920894	0.20141152	1.36097	0.031258574	0.32460999	1.0110544	-0.22774062	0.11261316	1.0305346	0.26045224	0.5519863	0.91849567	-0.17739893	0.17387244	0.80636212	0.32489218
268	1.068	0.097884412	0.033886888	-0.018249659	0.69356185	0.12305604	0.15686126	-0.016692282	0.084463873	-0.043098732	0.56022208	0.089668547	0.17214612	-0.013250839	0.1002594	0.043970768	0.57477526	0.12124135	0.087020884	-0.095380448	0.07203798	0.0027882169	0.52762051	0.046480215	0.10715207	0.14669861	0.41951274	-0.064640845	0.43308584	0.45702394	0.17844166	0.12861584	0.42636509	0.055277261	0.41961137	0.4321599	0.046499381	0.24126518	0.79467685	-0.13585951	0.26243928	0.78936025	0.21091666	0.32605055	0.83840253	-0.095991425	0.34391662	0.84522952	0.15090227	0.15342643	0.91671681	0.04419357	0.29713348	1.3273716	-0.14173821	0.26600147	1.3102271	0.21965818	0.20767193	1.3597715	0.031785994	0.3326482	1.0097963	-0.2269573	0.11869253	1.0292868	0.26052786	0.56033672	0.91847961	-0.17619285	0.1786164	0.80505759	0.32559721
269	1.072	0.097930685	0.033881018	-0.018290747	0.70504314	0.12625407	0.1562546	-0.015940825	0.085378997	-0.043399732	0.57190629	0.090643093	0.17136113	-0.012417421	0.10117936	0.043732426	0.58642113	0.1224592	0.086174277	-0.094786071	0.073801771	0.0024234317	0.54050463	0.046754768	0.1061134	0.15089941	0.41881867	-0.064686448	0.44025906	0.45597195	0.17829423	0.1330753	0.4256309	0.055242633	0.42663878	0.43069862	0.04603328	0.24685108	0.79361734	-0.13553717	0.27020768	0.78791443	0.21113117	0.33216472	0.83722755	-0.096290914	0.35118189	0.84402696	0.15073424	0.16041836	0.91553187	0.04494115	0.30349433	1.3260812	-0.14137257	0.27240349	1.3087797	0.22012522	0.2139461	1.358589	0.032361902	0.34062755	1.0085402	-0.22614303	0.12476967	1.0280262	0.26061905	0.56864717	0.91839978	-0.17497126	0.18331742	0.8037215	0.32624241
